<?xml version="1.0" encoding="utf-8"?>
<!-- Generator: Adobe Illustrator 18.1.1, SVG Export Plug-In . SVG Version: 6.00 Build 0)  -->
<svg version="1.1" id="Layer_1" xmlns="http://www.w3.org/2000/svg" xmlns:xlink="http://www.w3.org/1999/xlink" x="0px" y="0px"
	 viewBox="0 0 32 32" enable-background="new 0 0 32 32" xml:space="preserve">
<ellipse fill="none" stroke="#81C483" stroke-miterlimit="10" cx="15.8" cy="16.3" rx="15.2" ry="15.3"/>
<path fill="none" stroke="#81C483" stroke-miterlimit="10" d="M15.6,1.1c-0.7,0.1-3,0.6-4.6,2.7C10.5,4.3,9.2,6.1,9.7,8
	c0.2,0.9,0.9,1.6,2.2,2.9c1.1,1.1,1.7,1.5,2.9,2.6c2,1.7,3,2.6,3.7,3.7c1.5,2.5,1,5.3,0.8,6.1c-1,5.4-6.3,7.9-7,8.2"/>
<ellipse fill="none" stroke="#81C483" stroke-miterlimit="10" cx="10.8" cy="27.8" rx="1.2" ry="1.1"/>
<g>
	<g>
		<path fill="#81C483" d="M19.5,10c0.5,1.1,1.1,2.1,1.7,3.1c0.5,1.1,0.9,2.2,1.1,3.4c0.4,1.9,3.3,1.1,2.9-0.8
			c-0.2-1.1-0.6-2.2-1.1-3.3c-0.5-1.1-1.3-2.1-1.7-3.2C21.7,7.4,18.8,8.2,19.5,10L19.5,10z"/>
	</g>
</g>
<g>
	<g>
		<path fill="#81C483" d="M12.7,5.4C15.6,3.9,18.4,4,21,5.8c4.1,2.7,3.9,6.9,3.7,11.2c-0.1,3.2-0.2,6.2-3.1,8.3
			c-1.4,1-3.6,2.7-5.1,3.4c-1.8,0.8-0.2,3.4,1.5,2.6c2-0.9,3.8-2.5,5.7-3.7c1.6-1,2.6-1.7,3.3-3.4c1.4-3.8,1.1-9.5,0.6-13.4
			c-1.2-7.9-9.3-11.6-16.3-8C9.5,3.7,11,6.3,12.7,5.4L12.7,5.4z"/>
	</g>
</g>
<g>
	<g>
		<path fill="#81C483" d="M21.8,14.2c0.2,3.5,0.4,6.9,0.6,10.4c0.1,1.6,2.7,2.2,2.9,0.4c0.7-4.4,1.1-9.5,0.5-13.9
			c-0.2-1.3-0.3-3.8-1.2-4.9c-1-1.2-2.9-0.7-3.9-2.1c-1.1-1.5-3.5-0.2-2.6,1.5c1.5,2.9,3.3,5.6,3.7,9c0.2,1.5,2.6,2.2,2.9,0.4
			c0.9-4.5,0.6-7.6-2.7-10.9c-1.2-1.2-3.2,0.3-2.4,1.8c0.6,1.2,1.4,2,1.9,3.3c1,2.6,0.1,4.2-1.3,6.5c0.9,0.1,1.8,0.2,2.7,0.4
			c-0.5-2.8,0.6-9.5-3-10.6c-1.6-0.5-2.7,1.9-1.2,2.7c4.2,2.3,3.2,9.1,1.8,12.8c1,0.3,1.9,0.5,2.9,0.8c0.4-2.1,1.5-10-2.9-9.2
			c-1.3,0.2-2,1.5-2.1,2.7c-0.3,3.2,3.5,7.1,0.4,10c0.8,0.6,1.6,1.2,2.4,1.8c3-4.7,6.6-9.4,7.9-14.9c0.5-1.9-2.4-2.7-2.9-0.8
			c-1.3,5.2-4.8,9.7-7.6,14.2c-0.9,1.5,1.1,3,2.4,1.8c1.6-1.5,1.9-3.9,1.9-6.1c0-1.1-0.1-2.4-0.6-3.4c-2-4-1.5,1.3-1.8,3
			c-0.3,1.9,2.2,2.6,2.9,0.8c1.3-3.5,1.5-7.4,0.9-11.2c-0.4-2.7-1.8-3.7-4.1-5c-0.4,0.9-0.8,1.8-1.2,2.7c0.6,0.2,0.8,7.3,0.9,8.5
			c0.2,1.3,2.1,1.4,2.7,0.4c1.3-2.2,2.5-4.5,2.3-7.1c-0.2-2.6-1.8-3.6-2.9-5.8C21.6,5,20.8,5.6,20,6.2c2.5,2.4,2.6,4.8,1.9,8
			c1,0.1,2,0.3,2.9,0.4c-0.4-3.9-2.2-7-4.1-10.5c-0.9,0.5-1.7,1-2.6,1.5c0.6,0.9,1.3,1.9,2.3,2.3c2.1,0.9,1.4-1,1.9,1.2
			c1.1,4.8,0.9,10.2,0.1,15.1c1,0.1,2,0.3,2.9,0.4c-0.2-3.5-0.4-6.9-0.6-10.4C24.7,12.3,21.7,12.2,21.8,14.2L21.8,14.2z"/>
	</g>
</g>
<g>
	<g>
		<path fill="#81C483" d="M25,7.9c1.7,3.1,2.4,6.2,2.2,9.7c0,0.7,1.1,1,1.4,0.4c1.7-3.4,0.9-6.1-0.6-9.5c-0.8-1.9-2.4-4.1-4.4-4.9
			c-0.6-0.2-1.2,0.6-0.8,1.1c1.2,2,3.5,2.6,4.7,5c2.1,4.4,2.1,8.3,0.1,12.7c-0.4,0.9,0.9,1.6,1.3,0.8c1.8-4.1,2.4-7.3,0.9-11.6
			c-0.5-1.5-1.1-3.1-2.1-4.4c-0.9-1.3-2.9-1.9-3.6-3.2c-0.3,0.4-0.6,0.7-0.8,1.1c1.3,0.5,3,3.2,3.4,4.2c1.2,2.6,2,5.2,0.7,7.9
			c0.5,0.1,0.9,0.3,1.4,0.4c0.2-3.8-0.6-7.2-2.4-10.4C25.8,6.3,24.5,7,25,7.9L25,7.9z"/>
	</g>
</g>
<g>
	<g>
		<path fill="#81C483" d="M28.4,11.3c0.5,1.9,0.7,4,0.9,6c0.1,1,1.6,0.5,1.4-0.4c-0.3-2-0.4-4.1-0.9-6C29.6,10,28.2,10.3,28.4,11.3
			L28.4,11.3z"/>
	</g>
</g>
<g>
	<g>
		<path fill="#81C483" d="M27.6,16.2c-0.2,3-0.6,6-2.2,8.7c-0.5,0.8,0.8,1.6,1.3,0.8c1.7-2.9,2.1-6.2,2.4-9.5
			C29.2,15.2,27.7,15.2,27.6,16.2L27.6,16.2z"/>
	</g>
</g>
<g>
	<g>
		<path fill="#81C483" d="M29.3,18.6c-0.7,6.2-6.3,9.6-11.7,11.5c-0.9,0.3-0.5,1.8,0.4,1.4c6.1-2.2,12-6,12.8-13
			C30.9,17.7,29.4,17.7,29.3,18.6L29.3,18.6z"/>
	</g>
</g>
<g>
	<g>
		<path fill="#81C483" d="M19.2,21.3c-0.4,2.8-0.3,5.5-2.9,7.3c-0.8,0.5,0,1.8,0.8,1.3c3.1-2.1,3.2-5.2,3.6-8.5
			C20.9,20.3,19.3,20.3,19.2,21.3L19.2,21.3z"/>
	</g>
</g>
<g>
	<g>
		<path fill="#81C483" d="M14.5,31.8c1.2-0.4,2.5-0.7,3.7-1c0.9-0.3,0.5-1.7-0.4-1.4c-1.2,0.3-2.5,0.7-3.7,1
			C13.2,30.7,13.5,32.1,14.5,31.8L14.5,31.8z"/>
	</g>
</g>
<g>
	<g>
		<path fill="#81C483" d="M10.1,4.5c-2.3,6.1,5.4,8.7,8.4,12.4c0.4,0.5,1.3,0.1,1.3-0.5c-0.3-2.7,0.5-5.1,1.5-7.6
			c-0.5-0.1-1-0.1-1.5-0.2c0,1.5-0.2,2.7-0.8,4.1c0.5,0.1,0.9,0.3,1.4,0.4c-0.3-2-0.3-4-0.1-6c0.1-0.9-1.2-1-1.5-0.2
			c-0.7,2.2-1.3,4.4-1.6,6.6c0.3-0.2,0.6-0.3,0.9-0.5c-2.2-0.9-3.4-2.6-4.5-4.6c-0.5-1-1.5-1.9-1.7-3c-0.2-0.9-1.4-0.6-1.5,0.2
			C10.3,6.8,10,9.1,11.1,10c0.5,0.4,1.2,0.4,1.8,0.5c1.2,0.3,2.3,0.6,3.5,1.1c0.2-0.5,0.4-0.9,0.6-1.4c-1.9-0.4-3.4-1.3-4.7-2.8
			c-0.4,0.4-0.7,0.7-1.1,1.1c1.7,1.8,4.4,4.3,7.1,4.1c1-0.1,0.9-1.4,0-1.5c-0.5-0.1-1.1-0.1-1.6-0.2c0.2,0.4,0.4,0.9,0.5,1.3
			c0.3-0.5,0.8-0.8,1.3-1.1c0.6-0.4,0.4-1.5-0.4-1.4c-0.4,0-0.8,0.1-1.2,0.1c0.1,0.5,0.3,0.9,0.4,1.4c0.3-0.1,0.6-0.3,0.9-0.4
			c0.7-0.3,0.3-1.4-0.4-1.4c-0.3,0-0.6,0-0.9,0c0.2,0.4,0.4,0.9,0.5,1.3c0.3-0.3,0.7-0.5,1-0.8c0.6-0.4,0.4-1.5-0.4-1.4
			c-0.5,0-1.1,0.1-1.6,0.1c0.1,0.5,0.1,1,0.2,1.5c1.7-0.6,1.9-1.3,2.2-3.2C19,5.7,19,4.5,18,3.6c-0.4,0.4-0.7,0.7-1.1,1.1
			c0.4,0.3,2.6,3,1,3.4c0.3,0.1,0.6,0.2,0.8,0.3c-0.4-0.8,0.1-1.2-0.5-2c-0.3-0.3-0.8-0.3-1.1,0c-0.7,1-1.5,1.1-2.4,0.4
			c-1.3,0.1-1.8-0.5-1.4-1.8c0.3-0.9-1.2-1.3-1.4-0.4C11.4,6,12,8.1,13.3,8.8c1.6,1,3.7-0.3,4.9-1.4c-0.4,0-0.7,0-1.1,0
			c0.1,0.1,0.1,1.4,0.3,1.7c0.2,0.3,0.5,0.4,0.8,0.3c2.9-0.5,1.2-4.7-0.3-5.9C17.2,3,16.2,4,16.9,4.7c0.9,0.9,0.5,3.6-0.7,4.1
			c-0.7,0.3-0.7,1.6,0.2,1.5c0.5,0,1.1-0.1,1.6-0.1c-0.1-0.5-0.3-0.9-0.4-1.4c-0.8,0.4-0.7,0.4-1.4,1c-0.5,0.5-0.1,1.3,0.5,1.3
			c0.3,0,0.6,0,0.9,0c-0.1-0.5-0.3-0.9-0.4-1.4C17,9.8,16.7,9.9,16.4,10c-0.7,0.3-0.4,1.5,0.4,1.4c0.4,0,0.8-0.1,1.2-0.1
			c-0.1-0.5-0.3-0.9-0.4-1.4c-0.6,0.4-1.1,0.8-1.6,1.3c-0.5,0.5-0.1,1.2,0.5,1.3c0.5,0.1,1.1,0.1,1.6,0.2c0-0.5,0-1,0-1.5
			c-2.1,0.1-4.7-2.3-6-3.7c-0.7-0.7-1.7,0.3-1.1,1.1c1.4,1.7,3.2,2.7,5.4,3.2c0.8,0.2,1.4-1,0.6-1.4c-1-0.4-2-0.8-3.1-1.1
			c-0.4-0.1-1.2-0.1-1.5-0.3c-0.9-0.6-0.6-2.4-0.5-3.3c-0.5,0.1-1,0.1-1.5,0.2c0.1,0.8,0.4,1.2,0.9,1.9c0.7,1,1,2.1,1.7,3.1
			c1.1,1.6,2.9,2.9,4.6,3.6c0.3,0.1,0.9-0.1,0.9-0.5c0.3-2.3,0.9-4.5,1.6-6.6c-0.5-0.1-1-0.1-1.5-0.2c-0.2,2-0.2,4,0.1,6
			c0.1,0.6,1.1,1.2,1.4,0.4c0.7-1.6,1-3.1,1-4.8c0-0.9-1.2-1-1.5-0.2c-1,2.6-1.8,5.2-1.5,8c0.4-0.2,0.9-0.4,1.3-0.5
			c-2.6-3.3-9.9-5.8-8-10.9C11.9,4,10.4,3.7,10.1,4.5L10.1,4.5z"/>
	</g>
</g>
<g>
	<g>
		<path fill="#81C483" d="M13,4.5c-0.2,1-0.4,2,0.2,2.9c0.2,0.3,0.6,0.5,1,0.3c0.3-0.2,0.5-0.7,0.3-1c-0.4-0.5-0.2-1.2-0.1-1.7
			C14.7,4,13.2,3.6,13,4.5L13,4.5z"/>
	</g>
</g>
<g>
	<g>
		<path fill="#81C483" d="M13.1,9.7c1.6,0.2,3.1,0.3,4.7,0.5c0-0.5,0-1,0-1.5c-0.8,0-1.7,0-2.5,0c-0.5,0-1,0.6-0.6,1.1
			c0.4,0.5,0.7,0.7,1.3,1c0.7,0.4,1.3,0.8,1.8,1.4c0.7,0.7,1.7-0.4,1.1-1.1c-0.4-0.4-0.8-0.8-1.3-1.1c-0.4-0.3-1.3-0.6-1.6-1
			c-0.2,0.4-0.4,0.8-0.6,1.1c0.8,0,1.7,0,2.5,0c1,0,0.9-1.4,0-1.5c-1.6-0.2-3.1-0.3-4.7-0.5C12.2,8.1,12.2,9.6,13.1,9.7L13.1,9.7z"
			/>
	</g>
</g>
<g>
	<g>
		<path fill="#81C483" d="M17.1,13.8c0.1,0.6,0.4,1,0.9,1.3c0.5,0.4,1.1,0.7,1.6,1.1c0.8,0.5,1.6-0.8,0.8-1.3
			c-0.4-0.2-0.7-0.5-1.1-0.7c-0.3-0.2-0.7-0.3-0.8-0.6c0,0.1,0.1,0.3,0.1,0.4c0,0,0-0.1,0-0.1c0-0.4-0.3-0.8-0.8-0.8
			C17.5,13.1,17,13.4,17.1,13.8L17.1,13.8z"/>
	</g>
</g>
<g>
	<g>
		<path fill="#81C483" d="M14.2,5.3c1,0,1-1.5,0-1.5C13.3,3.8,13.3,5.3,14.2,5.3L14.2,5.3z"/>
	</g>
</g>
<g>
	<g>
		<path fill="#81C483" d="M16.4,5.1c1,0,1-1.5,0-1.5C15.5,3.6,15.5,5.1,16.4,5.1L16.4,5.1z"/>
	</g>
</g>
<ellipse fill="none" stroke="#FFFFFF" stroke-miterlimit="10" cx="15.8" cy="5.8" rx="1.2" ry="1.1"/>
</svg>
